<?xml version="1.0" encoding="UTF-8" standalone="no"?>
<!-- Created with Inkscape (http://www.inkscape.org/) -->

<svg
   xmlns:dc="http://purl.org/dc/elements/1.1/"
   xmlns:cc="http://creativecommons.org/ns#"
   xmlns:rdf="http://www.w3.org/1999/02/22-rdf-syntax-ns#"
   xmlns:svg="http://www.w3.org/2000/svg"
   xmlns="http://www.w3.org/2000/svg"
   xmlns:sodipodi="http://sodipodi.sourceforge.net/DTD/sodipodi-0.dtd"
   xmlns:inkscape="http://www.inkscape.org/namespaces/inkscape"
   id="svg2"
   version="1.1"
   inkscape:version="0.47 r22583"
   width="300"
   height="300"
   sodipodi:docname="Sitting volleyball pictogram (Paralympics).png">
  <metadata
     id="metadata8">
    <rdf:RDF>
      <cc:Work
         rdf:about="">
        <dc:format>image/svg+xml</dc:format>
        <dc:type
           rdf:resource="http://purl.org/dc/dcmitype/StillImage" />
        <dc:title></dc:title>
      </cc:Work>
    </rdf:RDF>
  </metadata>
  <defs
     id="defs6">
    <inkscape:perspective
       sodipodi:type="inkscape:persp3d"
       inkscape:vp_x="0 : 0.5 : 1"
       inkscape:vp_y="0 : 1000 : 0"
       inkscape:vp_z="1 : 0.5 : 1"
       inkscape:persp3d-origin="0.5 : 0.33333333 : 1"
       id="perspective10" />
  </defs>
  <sodipodi:namedview
     pagecolor="#ffffff"
     bordercolor="#666666"
     borderopacity="1"
     objecttolerance="10"
     gridtolerance="10"
     guidetolerance="10"
     inkscape:pageopacity="0"
     inkscape:pageshadow="2"
     inkscape:window-width="640"
     inkscape:window-height="502"
     id="namedview4"
     showgrid="false"
     inkscape:zoom="0.78666667"
     inkscape:cx="150"
     inkscape:cy="150"
     inkscape:window-x="0"
     inkscape:window-y="0"
     inkscape:window-maximized="0"
     inkscape:current-layer="svg2" />
  <path
     style="fill:#000000"
     d="m 134.5,279.11996 c -3.3,-0.95566 -6.90503,-2.23192 -8.01119,-2.83614 -8.46701,-4.62495 -8.42725,-16.41531 0.0772,-22.902 3.20587,-2.44523 4.69905,-2.88182 9.85611,-2.88182 5.15052,0 6.64891,0.43686 9.82074,2.86327 5.87724,4.49602 11.76024,14.01595 11.74179,19.00068 -0.008,2.27483 -0.34592,4.63118 -0.75,5.23635 -2.50309,3.74872 -12.68688,4.42943 -22.73469,1.51966 z m 50,-0.18526 c -19.36018,-1.69171 -23.79106,-3.92843 -23.6803,-11.95388 0.0922,-6.6845 5.11072,-13.40632 12.1803,-16.3145 3.17498,-1.30608 4.61436,-1.21355 15.5,0.99645 15.57195,3.1614 20.30324,5.48322 23.26345,11.41624 2.67884,5.36908 2.22938,9.65543 -1.3922,13.27701 -3.66238,3.66238 -8.24361,4.11901 -25.87125,2.57868 z M 109.24337,183.25 C 98.179545,177.24718 84.014777,163.79342 79.977179,155.45286 77.846474,151.05141 77.752914,150.20962 78.825875,145.09425 80.316628,137.98704 85.20807,130.87103 94.688763,122.0171 101.46643,115.68751 112.28397,109 115.74489,109 c 0.94596,0 0.2558,1.59778 -2.05176,4.75 -10.30272,14.07391 -18.659476,28.51859 -18.683361,32.29425 -0.0054,0.84934 3.782278,4.3528 8.417001,7.78547 10.89996,8.07296 19.34947,16.56563 20.42409,20.5284 2.18465,8.05618 -6.45484,13.31521 -14.60749,8.89188 z m 22.56364,-16.74838 c -5.944,-2.18487 -9.68649,-5.55595 -12.45882,-11.22239 -5.19784,-10.624 -1.21792,-22.05941 9.58112,-27.52923 11.69602,-5.92414 24.87812,-1.79765 30.53758,9.5594 4.34291,8.71508 2.94545,16.38451 -4.29999,23.59899 -6.76549,6.73659 -14.93062,8.69163 -23.35989,5.59323 z m 39.38269,-3.79969 c -5.07457,-5.40163 -4.05852,-9.43412 5.84608,-23.20193 6.61844,-9.19991 12.94707,-21.39604 15.88594,-30.61437 1.75492,-5.50465 4.98765,-19.525291 9.17953,-39.81246 1.7149,-8.299519 2.58127,-4.580195 3.36055,14.42683 0.83182,20.28838 -0.26306,30.28943 -5.05604,46.18389 -5.99408,19.87755 -10.80885,28.70991 -17.92343,32.87934 -5.20108,3.04803 -8.52115,3.08881 -11.29263,0.1387 z M 168,56.935713 c -7.35722,-3.067033 -13.93226,-14.226181 -12.48178,-21.184061 2.1037,-10.091296 10.6943,-17.286194 20.47407,-17.147664 6.30309,0.08928 10.15231,1.807633 14.69638,6.560693 8.24395,8.623107 6.95467,21.197486 -2.99504,29.210751 -3.27471,2.637378 -4.7413,3.103057 -10.5,3.334013 -3.6815,0.147649 -7.81863,-0.20053 -9.19363,-0.773732 z m 15.59319,-7.140001 C 194.62978,42.233318 191.06784,27.503615 177.5,24.59853 c -3.66732,-0.785231 -10.97496,2.653233 -13.75164,6.470561 -2.31788,3.186575 -2.50556,9.565957 -0.40117,13.63541 3.60608,6.973387 13.76931,9.529109 20.246,5.091211 z"
     id="path2818" />
</svg>
